# xmcd
#
# Track frame offsets: 
#        150
#        13044
#        29854
#        43455
#        56771
#        70012
#        82625
#        96049
#        115072
#        128813
#        142287
#        153366
#        165348
#        177425
#        190128
#
# Disc length: 2697 seconds
#
# Revision: 0
# Processed by: cddbd v1.5.2PL0 Copyright (c) Steve Scherf et al.
# Submitted via: ExactAudioCopy v0.95a5
#
DISCID=cc0a870f
DTITLE=Various Artist - So Blues - CD2
DYEAR=2007
DGENRE=Blues
TTITLE0=Robert Johnson - Rambling On My Mind
TTITLE1=Muddy Waters - Sad Sad Day
TTITLE2=Jelly Roll Morton - Jelly Roll Blues
TTITLE3=Mississipi John Hurt - Stack O'Lee
TTITLE4=Sleepy John Estes - Jailhouse Blues
TTITLE5=Jimmy Reed - Shame Shame Shame
TTITLE6=Big Bill Broonzy - Wee Wee Hours Blues
TTITLE7=Jimmy Mc Griff - Jumping The Blues
TTITLE8=Pee Wee Crayton - Blues After Hours
TTITLE9=Sonny Boy Williamson - Better Cut That Out
TTITLE10=JB Lenoir - Mama Talk To Your Daughter
TTITLE11=Lightnin' Hopkins - Lonesome Dog
TTITLE12=Charles Brown - Trouble Blues
TTITLE13=Blind Willie Mc Tell - You Was Born To Die
TTITLE14=Roy Milton - Big Fat Mama
EXTD=
EXTT0=
EXTT1=
EXTT2=
EXTT3=
EXTT4=
EXTT5=
EXTT6=
EXTT7=
EXTT8=
EXTT9=
EXTT10=
EXTT11=
EXTT12=
EXTT13=
EXTT14=
PLAYORDER=
